<svg xmlns="http://www.w3.org/2000/svg" viewBox="0 11.579999923706055 43.88999938964844 37.349998474121094" data-asc="0.96875" width="43.88999938964844" height="37.349998474121094"><defs/><g fill="#ffffff"><g transform="translate(0, 0)"><path d="M4.40 12.07L4.40 48.44L0 48.44L0 12.07L4.40 12.07ZM43.89 30.26Q43.89 36.01 41.81 40.20Q39.74 44.39 36.12 46.66Q32.49 48.93 27.84 48.93Q23.19 48.93 19.57 46.66Q15.94 44.39 13.87 40.20Q11.79 36.01 11.79 30.26Q11.79 24.50 13.87 20.31Q15.94 16.12 19.57 13.85Q23.19 11.58 27.84 11.58Q32.49 11.58 36.12 13.85Q39.74 16.12 41.81 20.31Q43.89 24.50 43.89 30.26M39.63 30.26Q39.63 25.53 38.06 22.28Q36.49 19.03 33.82 17.37Q31.14 15.70 27.84 15.70Q24.54 15.70 21.87 17.37Q19.19 19.03 17.62 22.28Q16.05 25.53 16.05 30.26Q16.05 34.98 17.62 38.23Q19.19 41.48 21.87 43.15Q24.54 44.82 27.84 44.82Q31.14 44.82 33.82 43.15Q36.49 41.48 38.06 38.23Q39.63 34.98 39.63 30.26Z"/></g></g></svg>